# xmcd CD database file
# Copyright (C) 1993-1998 Ti Kan
# 
# Track frame offsets:
#     150
#     17335
#     32950
#     57130
#     71690
#     85277
#     106990
#     125262
#     151172
# 
# Disc length: 2261 seconds
# 
# Revision: 1
# Processed by: cddbd v1.4b41PL1 Copyright (c) Steve Scherf et al.
# Submitted via: DiscPlay 4.0.4
# 
DISCID=6808d309
DTITLE=Bobby Bland - Blues You Can Use
DYEAR=1900
DGENRE=
TTITLE0=Get Your Money Where You Spend Your Time
TTITLE1=Spending My Life With You
TTITLE2=Our First Blues Song
TTITLE3=Restless Feelin's
TTITLE4=24 Hours A Day
TTITLE5=I've Got A Problem
TTITLE6=Let's Part As Friends
TTITLE7=For The Last Time
TTITLE8=There's No Easy Way To Say Goodbye
EXTD=
EXTT0=
EXTT1=
EXTT2=
EXTT3=
EXTT4=
EXTT5=
EXTT6=
EXTT7=
EXTT8=
PLAYORDER=
